<?xml version="1.0" encoding="utf-8"?>
<svg xmlns="http://www.w3.org/2000/svg"
	xmlns:xlink="http://www.w3.org/1999/xlink"
	width="380px" height="363px" viewBox="0 0 380 363">
<path fillRule="evenodd" d="M 190 363C 85.07 363-0 277.96-0 173.06-0 168.84 0.15 164.65 0.42 160.5 0.42 160.5 116 227.04 116 227.04 116 227.04 359.11 86.39 359.11 86.39 372.46 112.37 380 141.84 380 173.06 380 277.96 294.93 363 190 363ZM 3.02 139.14C 4.27 132.22 5.89 125.44 7.87 118.8 7.87 118.8 116 181.06 116 181.06 116 181.06 337.24 53.05 337.24 53.05 341.47 58.24 345.46 63.65 349.14 69.27 349.14 69.27 115.97 204.18 115.97 204.18 115.97 204.18 3.02 139.14 3.02 139.14ZM 14.64 99.84C 17.24 93.64 20.16 87.6 23.38 81.75 23.38 81.75 116 135.07 116 135.07 116 135.07 307.83 24.08 307.83 24.08 313.35 28.45 318.63 33.11 323.62 38.05 323.62 38.05 115.97 158.19 115.97 158.19 115.97 158.19 14.64 99.84 14.64 99.84ZM 33.83 64.91C 37.68 59.35 41.84 54.03 46.25 48.93 46.25 48.93 116 89.09 116 89.09 116 89.09 269.24 0.42 269.24 0.42 276.4 3.71 283.33 7.41 289.97 11.53 289.97 11.53 115.97 112.2 115.97 112.2 115.97 112.2 33.83 64.91 33.83 64.91ZM 115.97 66.21C 115.97 66.21 116.2 66.09 116.2 66.09 116.2 66.09 115.97 66.22 115.97 66.22 115.97 66.22 115.97 66.21 115.97 66.21Z" fill="rgb(23,28,2)"/></svg>